<?xml version="1.0" encoding="utf-8"?>
<!-- Generator: Adobe Illustrator 26.1.0, SVG Export Plug-In . SVG Version: 6.00 Build 0)  -->
<!DOCTYPE svg PUBLIC "-//W3C//DTD SVG 1.1//EN" "http://www.w3.org/Graphics/SVG/1.1/DTD/svg11.dtd" [
	<!ENTITY ns_extend "http://ns.adobe.com/Extensibility/1.0/">
	<!ENTITY ns_ai "http://ns.adobe.com/AdobeIllustrator/10.0/">
	<!ENTITY ns_graphs "http://ns.adobe.com/Graphs/1.0/">
	<!ENTITY ns_vars "http://ns.adobe.com/Variables/1.0/">
	<!ENTITY ns_imrep "http://ns.adobe.com/ImageReplacement/1.0/">
	<!ENTITY ns_sfw "http://ns.adobe.com/SaveForWeb/1.0/">
	<!ENTITY ns_custom "http://ns.adobe.com/GenericCustomNamespace/1.0/">
	<!ENTITY ns_adobe_xpath "http://ns.adobe.com/XPath/1.0/">
]>
<svg version="1.1" id="Layer_1" xmlns:x="&ns_extend;" xmlns:i="&ns_ai;" xmlns:graph="&ns_graphs;"
	 xmlns="http://www.w3.org/2000/svg" xmlns:xlink="http://www.w3.org/1999/xlink" x="0px" y="0px" viewBox="0 0 1024 768"
	 style="enable-background:new 0 0 1024 768;" xml:space="preserve">
<style type="text/css">
	.st0{fill:#DBF2F6;}
	.st1{fill:#8AD2DA;}
	.st2{fill:#FDCF2D;}
	.st3{fill:#D8EFF2;}
	.st4{fill:#FCD735;}
	.st5{fill:#F8A725;}
	.st6{fill:#FEC007;}
	.st7{fill:#DBF2F5;}
	.st8{fill:#FEEA3B;}
	.st9{fill:#FE9100;}
	.st10{fill:#F3BE55;}
</style>
<metadata>
	<sfw  xmlns="&ns_sfw;">
		<slices></slices>
		<sliceSourceBounds  bottomLeftOrigin="true" height="360" width="733" x="153.5" y="-554.7"></sliceSourceBounds>
	</sfw>
</metadata>
<g>
	<g>
		<path class="st0" d="M885.6,365.4c-0.6-11.8-0.9-23.7-2.5-35.4c-1.7-12.2-3.9-24.5-7.7-36.2c-9.3-28.2-26.4-51.3-50-69.5
			c-22.8-17.6-48.8-27.1-77.4-29.2c-13-1-26.2-0.2-39,2.4c-22.9,4.6-43.4,14.6-62,28.5c-13.1,9.8-26,20-38.9,30
			c-4.2,3.3-8.4,6.6-12.6,10c-1.8,0.7-3.4,1.9-4.8,3.3c0-0.1,0-0.2,0-0.4c-1.4,0.7-2.8,1.5-4.2,2.2c-7.5,3.9-15,7.7-22.6,11.6
			c14.4,8.3,28.9,16.7,43.3,25c10.1,5.8,20.2,11.5,30.3,17.3c7.6,4.3,9.2,10.2,4.9,17.7c-4.2,7.4-8.5,14.8-12.7,22.3
			c-0.6,1.1-1,2.4-1.5,3.6c4.8,8.3,9.7,16.5,14.4,24.8c4,7,2.3,12.8-4.5,16.9c-3.5,2.1-7,4.3-10.5,6.4c0,11.6,0.5,23.3,0,34.9
			c-0.5,10.8-5.5,19.8-14.5,25.9c-7.3,4.9-15,9.2-22.5,13.7c1.3,0.4,2.6,0.6,3.8,1.1c18,8.2,35.9,16.5,54,24.5
			c11.8,5.2,23.8,10.2,35.9,14.7c17.6,6.5,35.7,11.8,54.6,12.7c12.2,0.6,24.6,0.8,36.7-0.3c12.8-1.1,25.1-4.9,36.8-10.1
			c12.4-5.5,23.4-13,32.7-22.6c12.6-12.9,20.4-28.9,27.8-45c9.9-21.6,12.5-44.7,13.4-68.1C886.8,387.3,886.1,376.3,885.6,365.4z
			 M854.3,468.9c0,14.1-8.8,25.2-22.4,28.5c-16.9,4.1-34.5-9.6-34.6-26.9c0-3.7,0-7.5,0-11.9c-1.8,0-3.3,0-4.9,0
			c-21.7,0-43.4-0.2-65.1,0c-23.5,0.2-44.4-20.1-41.6-46.5c0.5-5,2.2-10.2,4.5-14.8c13.7-27.6,27.6-55,41.5-82.4
			c7.9-15.6,15.9-31.2,23.8-46.8c8.6-17,28.6-20.9,42.3-9.7c8.8,7.2,12.5,20.7,6.9,31.8c-13.5,26.9-27.1,53.7-40.7,80.6
			c-5.2,10.3-10.4,20.5-15.5,30.8c-0.6,1.3-1.2,2.6-2.1,4.5c17.2,0,33.8,0,50.9,0c0-7.8,0-15.4,0-23c0-6.6,1.9-12.6,5.7-18
			c5.9-8.3,18.5-13,28.5-10.7c11.3,2.6,20.2,11.3,22,21.9c0.5,2.9,0.8,5.8,0.8,8.7C854.3,412.9,854.3,440.9,854.3,468.9z"/>
		<path class="st0" d="M480.5,497.1c-13.4,6.6-26.9,13.1-40.2,20c-20,10.3-40.5,19.3-61.9,26c-15.4,4.8-31,8.9-47.1,10
			c-11.8,0.8-23.7,1.9-35.5,1.4c-16.7-0.7-33-4.3-48.7-10c-12.9-4.7-24.8-11.1-36-19.1c-14.7-10.5-26.1-23.8-35.1-39.4
			c-10.7-18.6-16.8-38.9-19.9-59.9c-1.9-12.8-2.9-26-2.5-39c0.6-21.7,5.3-42.8,15.3-62.3c13.5-26.2,32.9-46.6,60.3-58.4
			c11.3-4.9,23.3-7.6,35.7-8c2.8-0.1,5.6-0.5,8.3-0.7c-3.5,5.2-7.2,10.2-10.3,15.6c-4,7-7.4,14.2-11.1,21.4
			c-17.3,34.2-34.7,68.5-51.9,102.8c-4,8-5.6,16.4-4.1,25.6c3.2,20.2,20.3,35.4,40.8,35.4c21.7,0.1,43.4,0,65.1,0c1.6,0,3.1,0,5.2,0
			c0,3.7-0.1,6.8,0,10c0.3,8.5,2.9,16.2,9.2,21.9c9.1,8.1,19.9,10.1,30.9,5.1c11-4.9,17-13.8,16.9-26.3c-0.1-28.8-0.1-57.5,0-86.3
			c0.1-8.8-3-15.9-9.4-21.7c-8.4-7.6-18.3-9.3-28.7-5.5c-10.3,3.7-16.9,11.3-18.2,22.4c-0.9,7.8-0.6,15.7-0.9,23.6
			c0,1.4-0.1,2.8-0.2,4.4c-16.9,0-33.5,0-50.8,0c2.5-4.8,4.9-9.1,7.1-13.5c17.1-33.8,34.2-67.5,51.2-101.3
			c4.7-9.2,4.1-18.3-1.3-27.1c-0.5-0.8-0.9-1.6-1.4-2.4c32.6,8.6,65,17.6,97.7,25.6c14.9,3.7,30.3,5.5,45.5,8
			c5.4,0.9,10.8,1.2,16.3,1.7c-1.6,1-3.1,2.1-4.7,3c-14.5,8.3-29,16.6-43.5,24.9c-7.2,4.1-8.7,10-4.6,17.2
			c4.7,8.2,9.5,16.4,14.2,24.7c-0.6,1.5-1,3-1.8,4.4c-4.3,7.5-8.7,15-12.9,22.5c-3.7,6.5-2,12.5,4.4,16.4c3.6,2.2,7.3,4.4,10.9,6.6
			c0,10.6,0,21.1-0.1,31.7c-0.1,14.4,6.6,24.9,18.9,32C461.4,486,470.9,491.6,480.5,497.1z"/>
		<path class="st1" d="M311.5,261.8c0.5,0.8,0.9,1.6,1.4,2.4c5.4,8.8,5.9,17.8,1.3,27.1c-17,33.8-34.1,67.6-51.2,101.3
			c-2.2,4.4-4.5,8.7-7.1,13.5c17.3,0,33.8,0,50.8,0c0.1-1.6,0.2-3,0.2-4.4c0.3-7.9-0.1-15.8,0.9-23.6c1.3-11,7.9-18.7,18.2-22.4
			c10.4-3.8,20.3-2.1,28.7,5.5c6.4,5.8,9.4,12.9,9.4,21.7c-0.2,28.8-0.1,57.5,0,86.3c0,12.5-5.9,21.4-16.9,26.3
			c-11.1,5-21.9,3-30.9-5.1c-6.4-5.7-8.9-13.5-9.2-21.9c-0.1-3.2,0-6.3,0-10c-2.1,0-3.7,0-5.2,0c-21.7,0-43.4,0-65.1,0
			c-20.5-0.1-37.6-15.2-40.8-35.4c-1.5-9.1,0.1-17.5,4.1-25.6c17.2-34.3,34.6-68.5,51.9-102.8c3.6-7.2,7.1-14.4,11.1-21.4
			c3.1-5.4,6.8-10.4,10.3-15.6c7.4-5.1,15.6-7.7,24.2-4.6C302.5,254.9,306.8,258.9,311.5,261.8z"/>
		<path class="st2" d="M563.9,282.7c14.4,8.3,28.9,16.7,43.3,25c10.1,5.8,20.2,11.5,30.3,17.3c7.6,4.3,9.2,10.2,4.9,17.7
			c-4.2,7.4-8.5,14.8-12.7,22.3c-0.6,1.1-1,2.4-1.5,3.6c-1.3,0.5-2.8,0.8-4,1.5c-7.3,4.2-14.5,8.4-21.8,12.7
			c-14.5,8.4-29,16.8-43.6,25.2c-6.2,3.6-12.5,6.9-18.8,10.4c-3.2-1.9-6.5-3.8-9.7-5.7c0-31.6,0-63.3,0-94.9c0-2,0-4.1,0-6.1
			c3.9-6.9,7.7-13.9,11.6-20.8c0.9-1.5,1.8-2.9,2.7-4.4c4.1-7,9.6-8.5,16.8-4.8C562.2,282,563.1,282.3,563.9,282.7z"/>
		<path class="st3" d="M601.3,242.1c-1.2,1-2.2,2.4-3.5,3c-12.4,5.9-24.7,12.1-37.3,17.5c-16,6.8-33,10.5-50.1,13.3
			c-17.4,2.9-35.1,3.5-52.7,2.4c-13.5-0.8-27.1-2.3-40.1-6.3c-13.2-4-24.5-10.5-30.6-23.7c-8.4-18.4,2-34.4,21-38.1
			c12.9-2.5,25,1.2,36.8,5.2c20.1,6.8,39.9,14.5,59.8,21.7c14.1,5,28.5,8.6,43.4,10.2c15.9,1.7,31.4,0.3,46.5-5c2-0.7,4-1.1,6-1.7
			C600.8,241.1,601.1,241.6,601.3,242.1z"/>
		<path class="st4" d="M480.5,497.1c-9.6-5.6-19.1-11.2-28.7-16.7c-12.3-7.1-19-17.6-18.9-32c0.1-10.6,0-21.1,0.1-31.7
			c12.2,6.9,24.3,13.9,36.5,20.8c10.1,5.8,20.1,11.7,30.2,17.3c6,3.3,12,1.5,15.5-4.3c2.5-4.1,4.7-8.4,7.2-12.5
			c2.5-4.2,5.2-8.3,7.8-12.5c0,0,0.1,0,0.1,0c0,31.5,0,63.1,0,94.6c-3.7-0.6-7.7-0.7-11.2-1.9c-4.4-1.5-8.5-4-12.8-6.1
			C497.7,507.2,489.1,502.2,480.5,497.1z"/>
		<path class="st5" d="M530.3,520.1c0-31.5,0-63.1,0-94.6c4.9,8.2,9.8,16.4,14.7,24.7c3.4,5.8,10,7.9,15.8,4.5
			c14.7-8.4,29.3-16.9,44-25.4c7.5-4.3,15.1-8.5,22.6-12.7c0,11.6,0.5,23.3,0,34.9c-0.5,10.8-5.5,19.8-14.5,25.9
			c-7.3,4.9-15,9.2-22.5,13.7c-10.2,5.9-20.4,11.8-30.6,17.7c-3.6,2-7.2,3.9-10.8,5.9C543.1,518.1,537.1,520.4,530.3,520.1z"/>
		<path class="st6" d="M432.4,366.9c-4.7-8.2-9.5-16.4-14.2-24.7c-4.1-7.2-2.6-13.1,4.6-17.2c14.5-8.3,29-16.6,43.5-24.9
			c1.6-0.9,3.1-2,4.7-3c8.7-4.9,17.4-9.8,26.1-14.7c8.4-4.8,13.7-3.4,18.6,5c1.4,2.4,2.9,4.8,4.3,7.2c3.2,5.6,6.3,11.3,9.5,16.9
			c-0.1,0.3-0.1,0.5-0.1,0.8c-11.5,6.5-22.9,13.1-34.4,19.6c-15.8,9.1-31.7,18.2-47.5,27.3c-4.7,2.7-9.6,5.1-14.4,7.7
			C432.8,366.9,432.6,366.9,432.4,366.9z"/>
		<path class="st3" d="M530.3,520.1c6.8,0.3,12.8-2.1,18.6-5.3c3.6-2,7.2-4,10.8-5.9c12.2,2,24.6,3.5,35.1,11.1
			c2.3,1.6,4.4,3.5,6.2,5.6c3,3.4,3.1,8,0.9,11.9c-5.2,9.1-16.9,12.6-26.2,10.4c-12-2.8-23.8-6.8-35.7-10.4
			c-11.1-3.3-22.4-5.7-33.9-7c-13.1-1.5-25.7,0.3-38.5,2.4c-1.7,0.3-3.4,0.3-5.2,0.5c-0.2,0-0.4-0.3-1.5-0.9c3.2-2.1,6-4.1,9.1-5.8
			c11.5-6.3,23.7-11.1,36.3-14.6c4.3,2.1,8.4,4.5,12.8,6.1C522.7,519.5,526.6,519.6,530.3,520.1z"/>
		<path class="st7" d="M529.5,311.5c-3.2-5.6-6.3-11.3-9.5-16.9c7.3-1.3,14.6-2.6,21.9-3.9c-3.9,6.9-7.7,13.9-11.6,20.8
			C530.1,311.5,529.8,311.5,529.5,311.5z"/>
		<path class="st1" d="M746.4,406.1c17.2,0,33.8,0,50.9,0c0-7.8,0-15.4,0-23c0-6.6,1.9-12.6,5.7-18c5.9-8.3,18.5-13,28.5-10.7
			c11.3,2.6,20.2,11.3,22,21.9c0.5,2.9,0.8,5.8,0.8,8.7c0.1,28,0,55.9,0,83.9c0,14.1-8.8,25.2-22.4,28.5
			c-16.9,4.1-34.5-9.6-34.6-26.9c0-3.7,0-7.5,0-11.9c-1.8,0-3.3,0-4.9,0c-21.7,0-43.4-0.2-65.1,0c-23.5,0.2-44.4-20.1-41.6-46.5
			c0.5-5,2.2-10.2,4.5-14.8c13.7-27.6,27.6-55,41.5-82.4c7.9-15.6,15.9-31.2,23.8-46.8c8.6-17,28.6-20.9,42.3-9.7
			c8.8,7.2,12.5,20.7,6.9,31.8c-13.5,26.9-27.1,53.7-40.7,80.6c-5.2,10.3-10.4,20.5-15.5,30.8C747.8,402.8,747.2,404.2,746.4,406.1z
			"/>
		<path class="st6" d="M627.5,416.7c-7.5,4.2-15.1,8.4-22.6,12.7c-14.7,8.4-29.3,17-44,25.4c-5.9,3.3-12.5,1.2-15.8-4.5
			c-4.9-8.3-9.8-16.5-14.7-24.7l-0.1,0c-0.3-0.5-0.6-1-0.8-1.5c3.5-1.9,7-3.8,10.5-5.7c6.3-3.5,12.6-6.8,18.8-10.4
			c14.6-8.3,29.1-16.8,43.6-25.2c7.3-4.2,14.5-8.5,21.8-12.7c1.2-0.7,2.7-1,4-1.5c4.8,8.3,9.7,16.5,14.4,24.8c4,7,2.3,12.8-4.5,16.9
			C634.5,412.4,631,414.5,627.5,416.7z"/>
		<path class="st8" d="M529.5,424c0.3,0.5,0.6,1,0.8,1.5c-2.6,4.1-5.3,8.3-7.8,12.5c-2.5,4.1-4.7,8.4-7.2,12.5
			c-3.6,5.8-9.5,7.6-15.5,4.3c-10.2-5.6-20.2-11.5-30.2-17.3c-12.2-6.9-24.3-13.9-36.5-20.8c-3.6-2.2-7.3-4.4-10.9-6.6
			c-6.4-3.8-8.1-9.9-4.4-16.4c4.3-7.5,8.7-15,12.9-22.5c0.8-1.4,1.2-2.9,1.8-4.4c0.2,0,0.4,0,0.6,0c1,0.9,1.9,1.9,3,2.5
			c11.3,6.7,22.6,13.3,33.8,19.9c16.9,9.9,33.9,19.8,50.8,29.8C523.6,420.7,526.5,422.4,529.5,424z"/>
		<path class="st9" d="M529.5,424c-2.9-1.6-5.8-3.3-8.8-4.9c0.8-0.8,1.4-1.7,2.3-2.3c2.1-1.5,4.3-2.8,6.5-4.2c0.3,0,0.5,0,0.8-0.1
			c3.2,1.9,6.5,3.8,9.7,5.7C536.5,420.2,533,422.1,529.5,424z"/>
		<path class="st10" d="M530.3,412.6c-0.2,0-0.5,0.1-0.8,0.1c0-11.2,0-22.5,0-33.7c0-22.2-0.1-44.4-0.1-66.6c0-0.3,0.1-0.5,0.1-0.8
			c0.3,0,0.5,0,0.8,0c0,2,0,4.1,0,6.1C530.3,349.3,530.3,380.9,530.3,412.6z"/>
		<path class="st5" d="M529.4,312.3c0,22.2,0.1,44.4,0.1,66.6c0,11.2,0,22.5,0,33.7c-2.2,1.4-4.4,2.7-6.5,4.2
			c-0.9,0.6-1.6,1.5-2.3,2.3c-16.9-9.9-33.9-19.8-50.8-29.8c-11.3-6.6-22.6-13.2-33.8-19.9c-1.1-0.7-2-1.7-3-2.5
			c4.8-2.6,9.7-5,14.4-7.7c15.9-9,31.7-18.2,47.5-27.3C506.5,325.4,517.9,318.9,529.4,312.3z"/>
	</g>
</g>
</svg>
